<svg id="Layer_1" data-name="Layer 1" xmlns="http://www.w3.org/2000/svg" viewBox="0 0 24 24"><defs><style>.cls-1{fill:#fff;}</style></defs><title>del_user</title><path class="cls-1" d="M390.82-156.59a4.85,4.85,0,0,0,4.72-4.95,4.85,4.85,0,0,0-4.72-5,4.85,4.85,0,0,0-4.73,5A4.85,4.85,0,0,0,390.82-156.59Zm0-9.39a4.34,4.34,0,0,1,4.22,4.44,4.33,4.33,0,0,1-4.22,4.43,4.34,4.34,0,0,1-4.23-4.43A4.34,4.34,0,0,1,390.82-166Z" transform="translate(-380.49 166.5)"/><path class="cls-1" d="M391.1-155.11a9.81,9.81,0,0,1,7,3,5.22,5.22,0,0,1,.56-.18,10.33,10.33,0,0,0-7.59-3.37,10.89,10.89,0,0,0-10.61,11.13H381A10.36,10.36,0,0,1,391.1-155.11Z" transform="translate(-380.49 166.5)"/><path class="cls-1" d="M399.77-152.41a4.84,4.84,0,0,0-1.08.13,5.22,5.22,0,0,0-.56.18,5,5,0,0,0-3.09,4.64,5.09,5.09,0,0,0,.93,2.94,4.65,4.65,0,0,0,3.8,2,4.85,4.85,0,0,0,4.72-5A4.85,4.85,0,0,0,399.77-152.41Zm0,9.39a4.34,4.34,0,0,1-4.23-4.44,4.34,4.34,0,0,1,4.23-4.43,4.33,4.33,0,0,1,4.22,4.43A4.34,4.34,0,0,1,399.77-143Z" transform="translate(-380.49 166.5)"/><rect class="cls-1" x="16.76" y="18.81" width="5.59" height="0.46"/></svg>