<svg xmlns="http://www.w3.org/2000/svg" viewBox="0 0 47.71 32.05"><defs><style>.cls-1{fill:none;}</style></defs><title>Asset 2</title><g id="Layer_2" data-name="Layer 2"><g id="Layer_1-2" data-name="Layer 1"><path class="cls-1" d="M12.73,13.77A3.8,3.8,0,1,0,8.94,10,3.8,3.8,0,0,0,12.73,13.77Z"/><path class="cls-1" d="M43.93.71H3.78A3.08,3.08,0,0,0,.71,3.78V28.27a3.07,3.07,0,0,0,3.07,3.06H43.93A3.07,3.07,0,0,0,47,28.27V3.78A3.08,3.08,0,0,0,43.93.71ZM12.73,5.18a4.79,4.79,0,0,1,.2,9.57h-.39a4.79,4.79,0,0,1,.19-9.57Zm8.63,20.19a8.63,8.63,0,1,0-17.25,0h-1a9.63,9.63,0,0,1,9.43-9.62h.39a9.64,9.64,0,0,1,9.43,9.62Zm22.5-2.6h-18a.75.75,0,0,1,0-1.5h18a.75.75,0,0,1,0,1.5Zm0-4h-18a.75.75,0,0,1,0-1.5h18a.75.75,0,0,1,0,1.5Zm0-4h-18a.75.75,0,0,1,0-1.5h18a.75.75,0,0,1,0,1.5Zm0-4h-18a.75.75,0,0,1,0-1.5h18a.75.75,0,0,1,0,1.5Z"/><path d="M43.93,0H3.78A3.79,3.79,0,0,0,0,3.78V28.27a3.79,3.79,0,0,0,3.78,3.78H43.93a3.78,3.78,0,0,0,3.78-3.78V3.78A3.78,3.78,0,0,0,43.93,0ZM47,28.27a3.07,3.07,0,0,1-3.07,3.06H3.78A3.07,3.07,0,0,1,.71,28.27V3.78A3.08,3.08,0,0,1,3.78.71H43.93A3.08,3.08,0,0,1,47,3.78Z"/><path d="M12.54,14.75h.39a4.8,4.8,0,1,0-.39,0Zm.19-8.57A3.8,3.8,0,1,1,8.94,10,3.8,3.8,0,0,1,12.73,6.18Z"/><path d="M12.93,15.75h-.39a9.63,9.63,0,0,0-9.43,9.62h1a8.63,8.63,0,1,1,17.25,0h1A9.64,9.64,0,0,0,12.93,15.75Z"/><path d="M43.86,9.27h-18a.75.75,0,0,0,0,1.5h18a.75.75,0,0,0,0-1.5Z"/><path d="M43.86,13.27h-18a.75.75,0,0,0,0,1.5h18a.75.75,0,0,0,0-1.5Z"/><path d="M43.86,17.27h-18a.75.75,0,0,0,0,1.5h18a.75.75,0,0,0,0-1.5Z"/><path d="M43.86,21.27h-18a.75.75,0,0,0,0,1.5h18a.75.75,0,0,0,0-1.5Z"/></g></g></svg>