<svg id="Layer_1" data-name="Layer 1" xmlns="http://www.w3.org/2000/svg" viewBox="0 0 47.71 32.05"><title>id_icon_bitwits</title><path d="M280.88-113.25a3.8,3.8,0,0,0,3.79-3.8,3.79,3.79,0,0,0-3.79-3.79,3.8,3.8,0,0,0-3.8,3.79A3.8,3.8,0,0,0,280.88-113.25Z" transform="translate(-268.14 127.02)" style="fill:none"/><path d="M312.08-126.31H271.92a3.07,3.07,0,0,0-3.06,3.07v24.48a3.07,3.07,0,0,0,3.06,3.07h40.16a3.07,3.07,0,0,0,3.06-3.07v-24.48A3.07,3.07,0,0,0,312.08-126.31Zm-31.2,4.47a4.8,4.8,0,0,1,4.79,4.79,4.8,4.8,0,0,1-4.6,4.78h-.39a4.8,4.8,0,0,1-4.6-4.78A4.8,4.8,0,0,1,280.88-121.84Zm8.62,20.18a8.63,8.63,0,0,0-8.62-8.62,8.64,8.64,0,0,0-8.63,8.62h-1a9.62,9.62,0,0,1,9.43-9.61h.39a9.62,9.62,0,0,1,9.43,9.61Zm22.5-2.59H294a.76.76,0,0,1-.75-.75.76.76,0,0,1,.75-.75h18a.76.76,0,0,1,.75.75A.76.76,0,0,1,312-104.25Zm0-4H294a.76.76,0,0,1-.75-.75.76.76,0,0,1,.75-.75h18a.76.76,0,0,1,.75.75A.76.76,0,0,1,312-108.25Zm0-4H294a.76.76,0,0,1-.75-.75.76.76,0,0,1,.75-.75h18a.76.76,0,0,1,.75.75A.76.76,0,0,1,312-112.25Zm0-4H294a.76.76,0,0,1-.75-.75.76.76,0,0,1,.75-.75h18a.76.76,0,0,1,.75.75A.76.76,0,0,1,312-116.25Z" transform="translate(-268.14 127.02)" style="fill:none"/><path d="M312.08-127H271.92a3.78,3.78,0,0,0-3.78,3.78v24.48A3.78,3.78,0,0,0,271.92-95h40.16a3.78,3.78,0,0,0,3.78-3.78v-24.48A3.78,3.78,0,0,0,312.08-127Zm3.06,28.26a3.07,3.07,0,0,1-3.06,3.07H271.92a3.07,3.07,0,0,1-3.06-3.07v-24.48a3.07,3.07,0,0,1,3.06-3.07h40.16a3.07,3.07,0,0,1,3.06,3.07Z" transform="translate(-268.14 127.02)"/><path d="M312-117.75H294a.76.76,0,0,0-.75.75.76.76,0,0,0,.75.75h18a.76.76,0,0,0,.75-.75A.76.76,0,0,0,312-117.75Z" transform="translate(-268.14 127.02)"/><path d="M312-113.75H294a.76.76,0,0,0-.75.75.76.76,0,0,0,.75.75h18a.76.76,0,0,0,.75-.75A.76.76,0,0,0,312-113.75Z" transform="translate(-268.14 127.02)"/><path d="M312-109.75H294a.76.76,0,0,0-.75.75.76.76,0,0,0,.75.75h18a.76.76,0,0,0,.75-.75A.76.76,0,0,0,312-109.75Z" transform="translate(-268.14 127.02)"/><path d="M312-105.75H294a.76.76,0,0,0-.75.75.76.76,0,0,0,.75.75h18a.76.76,0,0,0,.75-.75A.76.76,0,0,0,312-105.75Z" transform="translate(-268.14 127.02)"/><path d="M271.38-101.5a9.5,9.5,0,0,1,9.5-9.5,9.5,9.5,0,0,1,9.5,9.5" transform="translate(-268.14 127.02)"/><circle cx="12.86" cy="10.02" r="5"/></svg>