<svg id="Layer_1" data-name="Layer 1" xmlns="http://www.w3.org/2000/svg" viewBox="0 0 47.71 32.05"><title>id_student_icon</title><path d="M199.88,277.75a3.8,3.8,0,1,0-3.8-3.8A3.8,3.8,0,0,0,199.88,277.75Z" transform="translate(-187.14 -263.98)" style="fill:none"/><path d="M231.08,264.69H190.92a3.07,3.07,0,0,0-3.06,3.07v24.48a3.07,3.07,0,0,0,3.06,3.07h40.16a3.07,3.07,0,0,0,3.06-3.07V267.76A3.07,3.07,0,0,0,231.08,264.69Zm-31.2,4.47a4.79,4.79,0,0,1,.19,9.57h-.39a4.79,4.79,0,0,1,.2-9.57Zm8.62,20.18a8.63,8.63,0,0,0-17.25,0h-1a9.62,9.62,0,0,1,9.43-9.61h.39a9.62,9.62,0,0,1,9.43,9.61Zm22.5-2.59H213a.75.75,0,0,1,0-1.5h18a.75.75,0,0,1,0,1.5Zm0-4H213a.75.75,0,0,1,0-1.5h18a.75.75,0,0,1,0,1.5Zm0-4H213a.75.75,0,0,1,0-1.5h18a.75.75,0,0,1,0,1.5Zm0-4H213a.75.75,0,0,1,0-1.5h18a.75.75,0,0,1,0,1.5Z" transform="translate(-187.14 -263.98)" style="fill:none"/><path d="M231.08,264H190.92a3.78,3.78,0,0,0-3.78,3.78v24.48a3.78,3.78,0,0,0,3.78,3.78h40.16a3.78,3.78,0,0,0,3.78-3.78V267.76A3.78,3.78,0,0,0,231.08,264Zm3.06,28.26a3.07,3.07,0,0,1-3.06,3.07H190.92a3.07,3.07,0,0,1-3.06-3.07V267.76a3.07,3.07,0,0,1,3.06-3.07h40.16a3.07,3.07,0,0,1,3.06,3.07Z" transform="translate(-187.14 -263.98)"/><path d="M199.68,278.73h.39a4.8,4.8,0,1,0-.39,0Zm.2-8.57a3.8,3.8,0,1,1-3.8,3.79A3.79,3.79,0,0,1,199.88,270.16Z" transform="translate(-187.14 -263.98)"/><path d="M200.07,279.73h-.39a9.62,9.62,0,0,0-9.43,9.61h1a8.63,8.63,0,0,1,17.25,0h1A9.62,9.62,0,0,0,200.07,279.73Z" transform="translate(-187.14 -263.98)"/><path d="M231,273.25H213a.75.75,0,0,0,0,1.5h18a.75.75,0,0,0,0-1.5Z" transform="translate(-187.14 -263.98)"/><path d="M231,277.25H213a.75.75,0,0,0,0,1.5h18a.75.75,0,0,0,0-1.5Z" transform="translate(-187.14 -263.98)"/><path d="M231,281.25H213a.75.75,0,0,0,0,1.5h18a.75.75,0,0,0,0-1.5Z" transform="translate(-187.14 -263.98)"/><path d="M231,285.25H213a.75.75,0,0,0,0,1.5h18a.75.75,0,0,0,0-1.5Z" transform="translate(-187.14 -263.98)"/></svg>