<svg id="Layer_1" data-name="Layer 1" xmlns="http://www.w3.org/2000/svg" viewBox="0 0 68.37 407.52"><title>iden</title><path d="M387.82,446.41a5,5,0,1,0-4.73-5A4.85,4.85,0,0,0,387.82,446.41Zm0-9.39a4.44,4.44,0,1,1-4.23,4.44A4.34,4.34,0,0,1,387.82,437Z" transform="translate(-377.49 -52.98)"/><path d="M388.1,447.89a9.81,9.81,0,0,1,7,3,5.22,5.22,0,0,1,.56-.18,10.33,10.33,0,0,0-7.59-3.37,10.89,10.89,0,0,0-10.61,11.13H378A10.36,10.36,0,0,1,388.1,447.89Z" transform="translate(-377.49 -52.98)"/><path d="M396.77,450.59a4.84,4.84,0,0,0-1.08.13,5.22,5.22,0,0,0-.56.18,5,5,0,0,0-3.09,4.64,5.09,5.09,0,0,0,.93,2.94,4.65,4.65,0,0,0,3.8,2,5,5,0,0,0,0-9.91Zm0,9.39a4.44,4.44,0,1,1,4.22-4.44A4.34,4.34,0,0,1,396.77,460Z" transform="translate(-377.49 -52.98)"/><rect x="16.76" y="402.34" width="5.59" height="0.46"/><path d="M410.88,66.75a3.8,3.8,0,1,0-3.8-3.8A3.8,3.8,0,0,0,410.88,66.75Z" transform="translate(-377.49 -52.98)" style="fill:none"/><path d="M442.08,53.69H401.92a3.07,3.07,0,0,0-3.06,3.07V81.24a3.07,3.07,0,0,0,3.06,3.07h40.16a3.07,3.07,0,0,0,3.06-3.07V56.76A3.07,3.07,0,0,0,442.08,53.69Zm-31.2,4.47a4.79,4.79,0,0,1,.19,9.57h-.39a4.79,4.79,0,0,1,.2-9.57Zm8.62,20.18a8.63,8.63,0,0,0-17.25,0h-1a9.62,9.62,0,0,1,9.43-9.61h.39a9.62,9.62,0,0,1,9.43,9.61ZM442,75.75H424a.75.75,0,0,1,0-1.5h18a.75.75,0,0,1,0,1.5Zm0-4H424a.75.75,0,0,1,0-1.5h18a.75.75,0,0,1,0,1.5Zm0-4H424a.75.75,0,0,1,0-1.5h18a.75.75,0,0,1,0,1.5Zm0-4H424a.75.75,0,0,1,0-1.5h18a.75.75,0,0,1,0,1.5Z" transform="translate(-377.49 -52.98)" style="fill:none"/><path d="M442.08,53H401.92a3.78,3.78,0,0,0-3.78,3.78V81.24A3.78,3.78,0,0,0,401.92,85h40.16a3.78,3.78,0,0,0,3.78-3.78V56.76A3.78,3.78,0,0,0,442.08,53Zm3.06,28.26a3.07,3.07,0,0,1-3.06,3.07H401.92a3.07,3.07,0,0,1-3.06-3.07V56.76a3.07,3.07,0,0,1,3.06-3.07h40.16a3.07,3.07,0,0,1,3.06,3.07Z" transform="translate(-377.49 -52.98)"/><path d="M410.68,67.73h.39a4.8,4.8,0,1,0-.39,0Zm.2-8.57a3.8,3.8,0,1,1-3.8,3.79A3.79,3.79,0,0,1,410.88,59.16Z" transform="translate(-377.49 -52.98)"/><path d="M411.07,68.73h-.39a9.62,9.62,0,0,0-9.43,9.61h1a8.63,8.63,0,0,1,17.25,0h1A9.62,9.62,0,0,0,411.07,68.73Z" transform="translate(-377.49 -52.98)"/><path d="M442,62.25H424a.75.75,0,0,0,0,1.5h18a.75.75,0,0,0,0-1.5Z" transform="translate(-377.49 -52.98)"/><path d="M442,66.25H424a.75.75,0,0,0,0,1.5h18a.75.75,0,0,0,0-1.5Z" transform="translate(-377.49 -52.98)"/><path d="M442,70.25H424a.75.75,0,0,0,0,1.5h18a.75.75,0,0,0,0-1.5Z" transform="translate(-377.49 -52.98)"/><path d="M442,74.25H424a.75.75,0,0,0,0,1.5h18a.75.75,0,0,0,0-1.5Z" transform="translate(-377.49 -52.98)"/></svg>