<?xml version="1.0"?>
<svg xmlns="http://www.w3.org/2000/svg" xmlns:xlink="http://www.w3.org/1999/xlink" version="1.1" id="Capa_1" x="0px" y="0px" width="512px" height="512px" viewBox="0 0 598.771 598.771" style="enable-background:new 0 0 598.771 598.771;" xml:space="preserve" class=""><g><g>
	<g>
		<path d="M161.197,253.695c16.274,6.884,33.538,10.374,51.31,10.374s35.035-3.49,51.31-10.374    c15.698-6.639,29.787-16.136,41.876-28.225c12.09-12.089,21.586-26.178,28.225-41.876c6.885-16.275,10.375-33.538,10.375-51.31    s-3.49-35.035-10.375-51.31c-6.639-15.698-16.135-29.787-28.225-41.876c-12.089-12.089-26.178-21.585-41.876-28.225    C247.542,3.991,230.279,0.5,212.507,0.5s-35.035,3.491-51.31,10.374c-15.698,6.64-29.787,16.136-41.876,28.225    S97.736,65.277,91.097,80.975c-6.884,16.274-10.374,33.538-10.374,51.31s3.49,35.035,10.374,51.31    c6.64,15.698,16.136,29.787,28.225,41.876C131.411,237.56,145.5,247.056,161.197,253.695z M301.452,132.285    c0,49.123-39.822,88.944-88.944,88.944c-49.123,0-88.945-39.822-88.945-88.944s39.822-88.944,88.944-88.944    C261.63,43.34,301.452,83.162,301.452,132.285z" data-original="#000000" class="active-path" data-old_color="#000000" fill="#FFFFFF"/>
		<path d="M212.507,264.569c-17.84,0-35.168-3.503-51.504-10.414c-15.757-6.664-29.899-16.196-42.035-28.332    c-12.134-12.134-21.667-26.277-28.332-42.035c-6.91-16.336-10.414-33.665-10.414-51.504s3.503-35.168,10.414-51.504    c6.665-15.758,16.197-29.9,28.332-42.035c12.135-12.135,26.277-21.667,42.035-28.332C177.34,3.503,194.668,0,212.507,0    s35.167,3.503,51.504,10.414c15.757,6.665,29.9,16.197,42.035,28.332c12.136,12.134,21.668,26.277,28.332,42.035    c6.91,16.335,10.414,33.664,10.414,51.504c0,17.84-3.504,35.168-10.414,51.504c-6.664,15.757-16.196,29.9-28.332,42.035    c-12.135,12.135-26.278,21.667-42.035,28.332C247.675,261.065,230.347,264.569,212.507,264.569z M212.507,1    c-17.704,0-34.901,3.477-51.115,10.334c-15.638,6.614-29.674,16.075-41.717,28.118C107.632,51.496,98.172,65.531,91.557,81.17    c-6.857,16.212-10.334,33.41-10.334,51.115s3.477,34.902,10.334,51.115c6.615,15.639,16.075,29.674,28.118,41.717    c12.044,12.044,26.08,21.504,41.717,28.118c16.212,6.857,33.41,10.334,51.115,10.334s34.902-3.477,51.115-10.334    c15.638-6.614,29.673-16.074,41.717-28.118c12.044-12.043,21.504-26.079,28.117-41.717c6.858-16.212,10.336-33.409,10.336-51.115    c0-17.706-3.478-34.903-10.336-51.115c-6.613-15.639-16.073-29.674-28.117-41.717c-12.043-12.043-26.079-21.504-41.717-28.118    C247.408,4.477,230.211,1,212.507,1z M212.508,221.729c-49.32,0-89.445-40.125-89.445-89.444s40.125-89.444,89.444-89.444    s89.445,40.125,89.445,89.444S261.828,221.729,212.508,221.729z M212.507,43.84c-48.769,0-88.444,39.676-88.444,88.444    s39.676,88.444,88.445,88.444s88.444-39.676,88.444-88.444S261.276,43.84,212.507,43.84z" data-original="#000000" class="active-path" data-old_color="#000000" fill="#FFFFFF"/>
	</g>
	<g>
		<path d="M556.226,360.314c-12.787-12.787-27.689-22.832-44.293-29.855c-17.213-7.28-35.473-10.972-54.271-10.972    s-37.059,3.691-54.271,10.972c-6.16,2.606-12.086,5.63-17.758,9.054c-2.293-2.627-4.678-5.188-7.162-7.671    c-14.041-14.042-30.404-25.071-48.635-32.781c-18.896-7.993-38.944-12.045-59.586-12.045H154.765    c-20.643,0-40.69,4.052-59.586,12.045c-18.23,7.71-34.593,18.739-48.635,32.781c-14.042,14.042-25.071,30.405-32.782,48.636    C5.77,399.374,1.718,419.422,1.718,440.063v78c0,32.059,26.082,58.141,58.14,58.141h305.3c4.984,0,9.824-0.631,14.443-1.816    c7.461,5.049,15.408,9.367,23.791,12.912c17.211,7.28,35.471,10.972,54.27,10.972s37.059-3.691,54.271-10.972    c16.604-7.022,31.506-17.067,44.295-29.855c12.787-12.787,22.832-27.69,29.855-44.294c7.279-17.212,10.971-35.472,10.971-54.271    c0-18.8-3.691-37.059-10.971-54.271C579.06,388.005,569.015,373.102,556.226,360.314z M416.103,546.051    c-6.512-3.11-12.619-6.927-18.227-11.354c-6.543-5.168-12.402-11.165-17.42-17.833c-12.145-16.146-19.348-36.225-19.348-57.985    c0-18.728,5.338-36.205,14.566-51.007c4.422-7.093,9.736-13.571,15.791-19.275c5.316-5.01,11.201-9.422,17.549-13.131    c14.285-8.35,30.906-13.139,48.646-13.139c53.324,0,96.551,43.228,96.551,96.552s-43.229,96.553-96.551,96.553    C442.782,555.432,428.69,552.062,416.103,546.051z M59.857,533.363c-8.45,0-15.3-6.851-15.3-15.3v-78    c0-60.866,49.342-110.208,110.208-110.208h115.484c32.859,0,62.354,14.386,82.545,37.196    c-9.82,11.193-17.729,23.788-23.553,37.557c-7.279,17.213-10.971,35.472-10.971,54.271c0,18.799,3.691,37.059,10.971,54.271    c2.984,7.058,6.521,13.804,10.576,20.213H59.857L59.857,533.363z" data-original="#000000" class="active-path" data-old_color="#000000" fill="#FFFFFF"/>
		<path d="M457.661,598.771c-18.867,0-37.191-3.705-54.464-11.012c-8.294-3.507-16.263-7.823-23.69-12.832    c-4.669,1.179-9.496,1.776-14.35,1.776h-305.3c-32.334,0-58.64-26.306-58.64-58.641v-78c0-20.711,4.065-40.823,12.084-59.78    c7.736-18.29,18.801-34.707,32.889-48.795C60.279,317.4,76.695,306.335,94.984,298.6c18.958-8.019,39.07-12.084,59.781-12.084    h115.484c20.711,0,40.824,4.066,59.78,12.084c18.291,7.735,34.707,18.8,48.794,32.888c2.341,2.339,4.663,4.82,6.909,7.38    c5.574-3.342,11.447-6.325,17.462-8.869c17.275-7.307,35.601-11.012,54.467-11.012s37.191,3.705,54.466,11.011    c16.663,7.049,31.619,17.13,44.452,29.963c12.833,12.831,22.915,27.787,29.964,44.453c7.307,17.275,11.011,35.601,11.011,54.466    c0,18.866-3.704,37.19-11.01,54.465c-7.05,16.665-17.13,31.621-29.963,44.453c-12.835,12.834-27.792,22.915-44.454,29.963    C494.853,595.066,476.527,598.771,457.661,598.771z M379.694,573.848l0.187,0.126c7.427,5.026,15.402,9.354,23.705,12.865    c17.149,7.255,35.343,10.933,54.075,10.933c18.731,0,36.926-3.678,54.077-10.933c16.542-6.996,31.392-17.005,44.136-29.748    c12.741-12.741,22.75-27.59,29.748-44.135c7.254-17.151,10.932-35.345,10.932-54.076c0-18.73-3.678-36.925-10.932-54.077    c-6.999-16.546-17.008-31.395-29.75-44.135c-12.741-12.741-27.591-22.75-44.134-29.748c-17.151-7.255-35.346-10.933-54.077-10.933    s-36.926,3.678-54.077,10.933c-6.1,2.581-12.053,5.616-17.693,9.021l-0.359,0.217l-0.276-0.315    c-2.316-2.654-4.719-5.228-7.139-7.646c-13.995-13.996-30.305-24.989-48.476-32.674c-18.833-7.967-38.815-12.006-59.392-12.006    H154.765c-20.576,0-40.558,4.039-59.391,12.006c-18.17,7.684-34.48,18.677-48.477,32.674    c-13.996,13.996-24.989,30.307-32.675,48.477c-7.966,18.834-12.005,38.815-12.005,59.392v78c0,31.783,25.857,57.641,57.64,57.641    h305.3c4.846,0,9.664-0.605,14.319-1.801L379.694,573.848z M457.661,555.932c-14.617,0-28.673-3.173-41.774-9.43    c-6.493-3.102-12.657-6.941-18.32-11.412c-6.578-5.195-12.47-11.227-17.51-17.925c-12.724-16.916-19.448-37.07-19.448-58.286    c0-18.178,5.063-35.907,14.643-51.271c4.432-7.109,9.772-13.628,15.872-19.375c5.359-5.05,11.294-9.491,17.64-13.198    c14.782-8.64,31.69-13.207,48.898-13.207c53.514,0,97.051,43.537,97.051,97.052S511.175,555.932,457.661,555.932z     M457.661,362.827c-17.03,0-33.765,4.52-48.395,13.07c-6.279,3.669-12.153,8.064-17.458,13.063    c-6.037,5.688-11.322,12.139-15.709,19.176c-9.48,15.205-14.491,32.751-14.491,50.742c0,20.997,6.655,40.944,19.247,57.685    c4.989,6.63,10.819,12.599,17.33,17.741c5.605,4.425,11.706,8.226,18.133,11.295c12.966,6.192,26.876,9.332,41.343,9.332    c52.963,0,96.051-43.089,96.051-96.053C553.712,405.916,510.624,362.827,457.661,362.827z M340.726,533.863H59.857    c-8.712,0-15.8-7.088-15.8-15.8v-78c0-61.045,49.664-110.708,110.708-110.708h115.484c31.677,0,61.899,13.619,82.919,37.365    l0.292,0.33l-0.29,0.331c-9.788,11.155-17.684,23.746-23.468,37.421c-7.254,17.152-10.932,35.346-10.932,54.077    s3.678,36.925,10.932,54.076c2.946,6.969,6.492,13.745,10.538,20.14L340.726,533.863z M154.765,330.355    c-60.493,0-109.708,49.215-109.708,109.708v78c0,8.16,6.639,14.8,14.8,14.8h279.056c-3.875-6.215-7.281-12.776-10.133-19.519    c-7.306-17.274-11.01-35.599-11.01-54.465c0-18.865,3.704-37.19,11.01-54.466c5.77-13.639,13.623-26.205,23.347-37.359    c-20.816-23.33-50.633-36.699-81.878-36.699H154.765z" data-original="#000000" class="active-path" data-old_color="#000000" fill="#FFFFFF"/>
	</g>
	<g>
		<path d="M504.745,437.459h-81.48h-12.688c-3.102,0-6.047,0.665-8.709,1.852c-7.488,3.338-12.711,10.841-12.711,19.568    c0,8.731,5.227,16.237,12.719,19.572c2.66,1.185,5.604,1.848,8.701,1.848h12.721h81.447c11.83,0,21.42-9.59,21.42-21.42    S516.575,437.459,504.745,437.459z" data-original="#000000" class="active-path" data-old_color="#000000" fill="#FFFFFF"/>
		<path d="M504.745,480.799h-94.168c-3.091,0-6.087-0.636-8.904-1.891c-7.907-3.52-13.016-11.382-13.016-20.029    c0-8.643,5.105-16.503,13.008-20.025c2.82-1.257,5.819-1.895,8.912-1.895h94.168c12.087,0,21.92,9.833,21.92,21.92    S516.832,480.799,504.745,480.799z M410.577,437.959c-2.952,0-5.813,0.608-8.506,1.809c-7.541,3.361-12.414,10.863-12.414,19.111    c0,8.253,4.876,15.757,12.422,19.115c2.689,1.197,5.548,1.805,8.498,1.805h94.168c11.535,0,20.92-9.385,20.92-20.92    s-9.385-20.92-20.92-20.92H410.577z" data-original="#000000" class="active-path" data-old_color="#000000" fill="#FFFFFF"/>
	</g>
</g></g> </svg>
