<svg id="Layer_1" data-name="Layer 1" xmlns="http://www.w3.org/2000/svg" viewBox="0 0 25 26"><title>remove_user</title><path d="M284.82-54.59a4.85,4.85,0,0,0,4.72-4.95,4.85,4.85,0,0,0-4.72-5,4.85,4.85,0,0,0-4.73,5A4.85,4.85,0,0,0,284.82-54.59Zm0-9.39A4.34,4.34,0,0,1,289-59.54a4.33,4.33,0,0,1-4.22,4.43,4.34,4.34,0,0,1-4.23-4.43A4.34,4.34,0,0,1,284.82-64Z" transform="translate(-273.99 65)" style="fill:none;stroke:#000;stroke-miterlimit:10"/><path d="M293.77-49.41a4.84,4.84,0,0,0-1.08.13,10.33,10.33,0,0,0-7.59-3.37,10.89,10.89,0,0,0-10.61,11.13H275A10.36,10.36,0,0,1,285.1-52.11a9.81,9.81,0,0,1,7,3A5,5,0,0,0,289-44.46a5.09,5.09,0,0,0,.93,2.94,4.65,4.65,0,0,0,3.8,2,4.85,4.85,0,0,0,4.72-5A4.85,4.85,0,0,0,293.77-49.41Zm0,9.39a4.34,4.34,0,0,1-4.23-4.44,4.34,4.34,0,0,1,4.23-4.43A4.33,4.33,0,0,1,298-44.46,4.34,4.34,0,0,1,293.77-40Z" transform="translate(-273.99 65)" style="fill:none;stroke:#000;stroke-miterlimit:10"/><rect x="17.26" y="20.31" width="5.59" height="0.46" style="fill:none;stroke:#000;stroke-miterlimit:10"/><line x1="0.01" y1="23" x2="16.01" y2="23" style="fill:none;stroke:#000;stroke-miterlimit:10;stroke-width:1.899999976158142px"/></svg>