<svg id="Layer_1" data-name="Layer 1" xmlns="http://www.w3.org/2000/svg" viewBox="0 0 39.24 36.13"><title>stack_of_books</title><path d="M221.66,562v2.13H191.55a6,6,0,0,1,0-12.05h30.11v2.13l-.12.14h-30a3.76,3.76,0,1,0,0,7.52h30Z" transform="translate(-185.39 -541)"/><path d="M221.66,564.2H191.55a6.13,6.13,0,1,1,0-12.25h30.11a.11.11,0,0,1,.1.1v2.13a.11.11,0,0,1,0,.07l-.1.13a5.88,5.88,0,0,0,0,7.38h0l.1.13a.09.09,0,0,1,0,.07v2.13A.11.11,0,0,1,221.66,564.2Zm-30.11-12a5.92,5.92,0,0,0-5.92,5.91,5.93,5.93,0,0,0,5.92,5.92h30v-2l-.09-.12a6,6,0,0,1-1.2-2.5,6.43,6.43,0,0,1-.14-1.32,6.33,6.33,0,0,1,.14-1.31,6.21,6.21,0,0,1,1.2-2.51l.09-.11v-2Z" transform="translate(-185.39 -541)"/><path d="M221.54,561.94h-30a3.87,3.87,0,0,1,0-7.73h30v.21h-30a3.67,3.67,0,0,0-3.66,3.65,3.66,3.66,0,0,0,3.66,3.66h30Z" transform="translate(-185.39 -541)"/><path d="M220.36,559.78H191.05a.41.41,0,0,1-.41-.41h0a.41.41,0,0,1,.41-.42h29.31Z" transform="translate(-185.39 -541)"/><path d="M220.36,557.19H191.05a.41.41,0,0,1-.41-.41h0a.41.41,0,0,1,.41-.41h29.31Z" transform="translate(-185.39 -541)"/><path d="M218.39,550.13v1.93H191a5.49,5.49,0,0,1,0-11h27.42V543l-.11.13H191a3.45,3.45,0,0,0-3.43,3.43A3.43,3.43,0,0,0,191,550h27.31Z" transform="translate(-185.39 -541)"/><path d="M218.39,552.16H191A5.58,5.58,0,1,1,191,541h27.42a.09.09,0,0,1,.09.09V543a.14.14,0,0,1,0,.06l-.1.12a5.44,5.44,0,0,0-1.06,4.52,5.4,5.4,0,0,0,1.06,2.21h0l.1.12a.14.14,0,0,1,0,.07v1.93A.1.1,0,0,1,218.39,552.16Zm-27.42-11A5.39,5.39,0,0,0,191,552h27.32v-1.81a1,1,0,0,1-.08-.11,5.54,5.54,0,0,1-1.09-2.28,5.17,5.17,0,0,1-.13-1.19,5.32,5.32,0,0,1,.13-1.2,5.54,5.54,0,0,1,1.09-2.28l.08-.1v-1.81Z" transform="translate(-185.39 -541)"/><path d="M218.28,550.1H191a3.52,3.52,0,1,1,0-7h27.31v.19H191a3.33,3.33,0,0,0,0,6.66h27.31Z" transform="translate(-185.39 -541)"/><path d="M217.21,548.13h-26.7a.38.38,0,0,1-.38-.38h0a.38.38,0,0,1,.38-.37h26.7Z" transform="translate(-185.39 -541)"/><path d="M217.21,545.78h-26.7a.38.38,0,0,1-.38-.38h0a.37.37,0,0,1,.38-.37h26.7Z" transform="translate(-185.39 -541)"/><path d="M224.52,574.73V577H192.2a6.47,6.47,0,1,1,0-12.93h32.32v2.28a1.58,1.58,0,0,0-.12.15H192.2a4,4,0,0,0-4,4,4,4,0,0,0,4,4h32.2A1.58,1.58,0,0,0,224.52,574.73Z" transform="translate(-185.39 -541)"/><path d="M224.52,577.13H192.2a6.58,6.58,0,1,1,0-13.15h32.32a.11.11,0,0,1,.11.11v2.28a.09.09,0,0,1,0,.07l-.12.15a6.26,6.26,0,0,0-1.24,2.6,6.16,6.16,0,0,0-.15,1.36,6.38,6.38,0,0,0,1.39,4h0l.12.14a.11.11,0,0,1,0,.07V577A.11.11,0,0,1,224.52,577.13ZM192.2,564.2a6.35,6.35,0,1,0,0,12.7h32.21v-2.13l-.1-.12A6.46,6.46,0,0,1,223,572a6.55,6.55,0,0,1-.15-1.41,6.62,6.62,0,0,1,.15-1.41,6.46,6.46,0,0,1,1.29-2.69l.1-.12V564.2Z" transform="translate(-185.39 -541)"/><path d="M224.39,574.7H192.2a4.15,4.15,0,0,1-4.15-4.15,4.15,4.15,0,0,1,4.15-4.14h32.19v.22H192.2a3.93,3.93,0,1,0,0,7.85h32.19Z" transform="translate(-185.39 -541)"/><path d="M223.13,572.38H191.66a.44.44,0,0,1-.44-.44h0a.43.43,0,0,1,.44-.44h31.47Z" transform="translate(-185.39 -541)"/><path d="M223.13,569.61H191.66a.44.44,0,0,1-.44-.44h0a.44.44,0,0,1,.44-.45h31.47Z" transform="translate(-185.39 -541)"/></svg>