<svg id="Layer_1" data-name="Layer 1" xmlns="http://www.w3.org/2000/svg" viewBox="0 0 46.28 30.62"><title>studentId_icon</title><path d="M280.88-113.25a3.8,3.8,0,0,1-3.8-3.8,3.8,3.8,0,0,1,3.8-3.79,3.79,3.79,0,0,1,3.79,3.79A3.8,3.8,0,0,1,280.88-113.25Z" transform="translate(-268.86 126.31)" style="fill:#fff"/><path d="M312-116.25a.76.76,0,0,0,.75-.75.76.76,0,0,0-.75-.75H294a.76.76,0,0,0-.75.75.76.76,0,0,0,.75.75Zm-18,2.5a.76.76,0,0,0-.75.75.76.76,0,0,0,.75.75h18a.76.76,0,0,0,.75-.75.76.76,0,0,0-.75-.75Zm0,4a.76.76,0,0,0-.75.75.76.76,0,0,0,.75.75h18a.76.76,0,0,0,.75-.75.76.76,0,0,0-.75-.75Zm0,4a.76.76,0,0,0-.75.75.76.76,0,0,0,.75.75h18a.76.76,0,0,0,.75-.75.76.76,0,0,0-.75-.75ZM276.08-117a4.8,4.8,0,0,0,4.6,4.78h.39a4.8,4.8,0,0,0,4.6-4.78,4.8,4.8,0,0,0-4.79-4.79A4.8,4.8,0,0,0,276.08-117Zm-4.83,15.39h1a8.64,8.64,0,0,1,8.63-8.62,8.63,8.63,0,0,1,8.62,8.62h1a9.62,9.62,0,0,0-9.43-9.61h-.39A9.62,9.62,0,0,0,271.25-101.66Zm-2.39,2.9v-24.48a3.07,3.07,0,0,1,3.06-3.07h40.16a3.07,3.07,0,0,1,3.06,3.07v24.48a3.07,3.07,0,0,1-3.06,3.07H271.92A3.07,3.07,0,0,1,268.86-98.76Z" transform="translate(-268.86 126.31)" style="fill:#fff"/></svg>