<svg id="Layer_1" data-name="Layer 1" xmlns="http://www.w3.org/2000/svg" viewBox="0 0 48.35 650.52"><defs><style>.cls-1{fill:none;}</style></defs><title>student_id</title><path d="M387.82,446.41a5,5,0,1,0-4.73-5A4.85,4.85,0,0,0,387.82,446.41Zm0-9.39a4.44,4.44,0,1,1-4.23,4.44A4.34,4.34,0,0,1,387.82,437Z" transform="translate(-353.14 190.02)"/><path d="M388.1,447.89a9.81,9.81,0,0,1,7,3,5.22,5.22,0,0,1,.56-.18,10.33,10.33,0,0,0-7.59-3.37,10.89,10.89,0,0,0-10.61,11.13H378A10.36,10.36,0,0,1,388.1,447.89Z" transform="translate(-353.14 190.02)"/><path d="M396.77,450.59a4.84,4.84,0,0,0-1.08.13,5.22,5.22,0,0,0-.56.18,5,5,0,0,0-3.09,4.64,5.09,5.09,0,0,0,.93,2.94,4.65,4.65,0,0,0,3.8,2,5,5,0,0,0,0-9.91Zm0,9.39a4.44,4.44,0,1,1,4.22-4.44A4.34,4.34,0,0,1,396.77,460Z" transform="translate(-353.14 190.02)"/><rect x="41.11" y="645.34" width="5.59" height="0.46"/><path class="cls-1" d="M397.08-189.31H356.92a3.07,3.07,0,0,0-3.06,3.07v24.48a3.07,3.07,0,0,0,3.06,3.07h40.16a3.07,3.07,0,0,0,3.06-3.07v-24.48A3.07,3.07,0,0,0,397.08-189.31Zm-31.2,4.47a4.8,4.8,0,0,1,4.79,4.79,4.8,4.8,0,0,1-4.6,4.78h-.39a4.8,4.8,0,0,1-4.6-4.78A4.8,4.8,0,0,1,365.88-184.84Zm8.62,20.18a8.63,8.63,0,0,0-8.62-8.62,8.64,8.64,0,0,0-8.63,8.62h-1a9.62,9.62,0,0,1,9.43-9.61h.39a9.62,9.62,0,0,1,9.43,9.61Zm22.5-2.59H379a.76.76,0,0,1-.75-.75.76.76,0,0,1,.75-.75h18a.76.76,0,0,1,.75.75A.76.76,0,0,1,397-167.25Zm0-4H379a.76.76,0,0,1-.75-.75.76.76,0,0,1,.75-.75h18a.76.76,0,0,1,.75.75A.76.76,0,0,1,397-171.25Zm0-4H379a.76.76,0,0,1-.75-.75.76.76,0,0,1,.75-.75h18a.76.76,0,0,1,.75.75A.76.76,0,0,1,397-175.25Zm0-4H379a.76.76,0,0,1-.75-.75.76.76,0,0,1,.75-.75h18a.76.76,0,0,1,.75.75A.76.76,0,0,1,397-179.25Z" transform="translate(-353.14 190.02)"/><path class="cls-1" d="M365.88-176.25a3.8,3.8,0,0,0,3.79-3.8,3.79,3.79,0,0,0-3.79-3.79,3.8,3.8,0,0,0-3.8,3.79A3.8,3.8,0,0,0,365.88-176.25Z" transform="translate(-353.14 190.02)"/><path d="M397.08-190H356.92a3.78,3.78,0,0,0-3.78,3.78v24.48a3.78,3.78,0,0,0,3.78,3.78h40.16a3.78,3.78,0,0,0,3.78-3.78v-24.48A3.78,3.78,0,0,0,397.08-190Zm3.06,28.26a3.07,3.07,0,0,1-3.06,3.07H356.92a3.07,3.07,0,0,1-3.06-3.07v-24.48a3.07,3.07,0,0,1,3.06-3.07h40.16a3.07,3.07,0,0,1,3.06,3.07Z" transform="translate(-353.14 190.02)"/><path d="M365.68-175.27h.39a4.8,4.8,0,0,0,4.6-4.78,4.8,4.8,0,0,0-4.79-4.79,4.8,4.8,0,0,0-4.8,4.79A4.8,4.8,0,0,0,365.68-175.27Zm.2-8.57a3.79,3.79,0,0,1,3.79,3.79,3.8,3.8,0,0,1-3.79,3.8,3.8,3.8,0,0,1-3.8-3.8A3.8,3.8,0,0,1,365.88-183.84Z" transform="translate(-353.14 190.02)"/><path d="M366.07-174.27h-.39a9.62,9.62,0,0,0-9.43,9.61h1a8.64,8.64,0,0,1,8.63-8.62,8.63,8.63,0,0,1,8.62,8.62h1A9.62,9.62,0,0,0,366.07-174.27Z" transform="translate(-353.14 190.02)"/><path d="M397-180.75H379a.76.76,0,0,0-.75.75.76.76,0,0,0,.75.75h18a.76.76,0,0,0,.75-.75A.76.76,0,0,0,397-180.75Z" transform="translate(-353.14 190.02)"/><path d="M397-176.75H379a.76.76,0,0,0-.75.75.76.76,0,0,0,.75.75h18a.76.76,0,0,0,.75-.75A.76.76,0,0,0,397-176.75Z" transform="translate(-353.14 190.02)"/><path d="M397-172.75H379a.76.76,0,0,0-.75.75.76.76,0,0,0,.75.75h18a.76.76,0,0,0,.75-.75A.76.76,0,0,0,397-172.75Z" transform="translate(-353.14 190.02)"/><path d="M397-168.75H379a.76.76,0,0,0-.75.75.76.76,0,0,0,.75.75h18a.76.76,0,0,0,.75-.75A.76.76,0,0,0,397-168.75Z" transform="translate(-353.14 190.02)"/></svg>